<svg xmlns="http://www.w3.org/2000/svg" viewBox="0 0 120 120" role="img" aria-label="Ezo momonga">
  <g fill="none" stroke="#1A1A18" stroke-linecap="round" stroke-linejoin="round">
    <!-- head -->
    <path d="M60 16 C34 16 20 40 22 64 C24 90 40 106 60 106 C80 106 96 90 98 64 C100 40 86 16 60 16 Z" stroke-width="5" fill="#FAFAF7"/>
    <!-- ears -->
    <path d="M40 20 Q34 8 46 10 Q52 12 50 20" stroke-width="4" fill="#FAFAF7"/>
    <path d="M80 20 Q86 8 74 10 Q68 12 70 20" stroke-width="4" fill="#FAFAF7"/>
    <!-- enso-brush eyes -->
    <circle cx="40" cy="54" r="17" stroke-width="8" fill="#FAFAF7"/>
    <circle cx="80" cy="54" r="17" stroke-width="8" fill="#FAFAF7"/>
    <!-- brush-flourish where the left ring doesn't fully close -->
    <path d="M25 68 Q21 74 28 76 Q34 74 30 66" fill="#1A1A18" stroke="none"/>
    <!-- whiskers -->
    <path d="M24 80 L4 84 M24 84 L4 92 M26 88 L7 100" stroke-width="1.6"/>
    <path d="M96 80 L116 84 M96 84 L116 92 M94 88 L113 100" stroke-width="1.6"/>
    <!-- nose / mouth -->
    <path d="M52 92 Q56 96 60 92 Q64 96 68 92" stroke-width="3.2"/>
    <path d="M60 93 L60 99" stroke-width="3.2"/>
    <path d="M53 101 Q60 106 67 101" stroke-width="3.2"/>
  </g>
  <circle cx="40" cy="54" r="6" fill="#C4761F"/>
  <circle cx="80" cy="54" r="6" fill="#C4761F"/>
</svg>
