<svg xmlns="http://www.w3.org/2000/svg" viewBox="0 0 120 120" role="img" aria-label="Ezo momonga">
  <g fill="none" stroke="#1A1A18" stroke-linecap="round" stroke-linejoin="round">
    <!-- enso-brush eyes -->
    <circle cx="36" cy="46" r="22" stroke-width="9"/>
    <circle cx="84" cy="46" r="22" stroke-width="9"/>
    <!-- brush-flourish where the left ring doesn't fully close -->
    <path d="M17 60 Q12 67 21 70 Q29 67 24 58" fill="#1A1A18" stroke="none"/>
    <!-- ears -->
    <path d="M18 74 Q7 85 16 99 Q29 92 26 79 Q24 73 18 74 Z" stroke-width="3"/>
    <path d="M16 81 Q22 87 25 83" stroke-width="2.5"/>
    <path d="M102 74 Q113 85 104 99 Q91 92 94 79 Q96 73 102 74 Z" stroke-width="3"/>
    <path d="M104 81 Q98 87 95 83" stroke-width="2.5"/>
    <!-- whiskers -->
    <path d="M18 92 L2 97 M18 96 L2 105 M20 100 L5 112" stroke-width="1.6"/>
    <path d="M102 92 L118 97 M102 96 L118 105 M100 100 L115 112" stroke-width="1.6"/>
    <!-- nose / mouth -->
    <path d="M52 100 Q56 104 60 100 Q64 104 68 100" stroke-width="3.5"/>
    <path d="M60 101 L60 107" stroke-width="3.5"/>
    <path d="M53 109 Q60 114 67 109" stroke-width="3.5"/>
  </g>
  <circle cx="36" cy="46" r="7" fill="#C4761F"/>
  <circle cx="84" cy="46" r="7" fill="#C4761F"/>
</svg>
